<svg width="37" height="44" viewBox="0 0 37 44" fill="none" xmlns="http://www.w3.org/2000/svg">
<path d="M31.6477 13.092L34.281 10.4587L31.6898 7.86656L28.8728 10.6836C26.2993 8.85986 23.2962 7.73587 20.1578 7.42172V3.66504H23.8228V0H12.8277V3.66504H16.4927V7.42172C13.3542 7.73587 10.3512 8.85986 7.77769 10.6836L4.96065 7.86656L2.36946 10.4587L5.0028 13.092C2.54474 15.6945 0.902785 18.9601 0.279712 22.4853C-0.343362 26.0105 0.0797319 29.641 1.49674 32.9285C2.91375 36.2159 5.26262 39.0163 8.25327 40.9839C11.2439 42.9515 14.7454 44 18.3252 44C21.9051 44 25.4065 42.9515 28.3972 40.9839C31.3878 39.0163 33.7367 36.2159 35.1537 32.9285C36.5707 29.641 36.9938 26.0105 36.3708 22.4853C35.7477 18.9601 34.1057 15.6945 31.6477 13.092ZM18.3252 40.3155C15.4257 40.3155 12.5913 39.4557 10.1805 37.8448C7.76962 36.2339 5.89059 33.9443 4.78099 31.2655C3.6714 28.5867 3.38108 25.639 3.94675 22.7953C4.51241 19.9515 5.90866 17.3393 7.95892 15.289C10.0092 13.2387 12.6214 11.8425 15.4652 11.2768C18.309 10.7112 21.2566 11.0015 23.9354 12.1111C26.6142 13.2207 28.9038 15.0997 30.5147 17.5106C32.1256 19.9214 32.9854 22.7558 32.9854 25.6553C32.981 29.5421 31.4351 33.2684 28.6867 36.0168C25.9383 38.7652 22.212 40.3111 18.3252 40.3155Z" fill="#C12026"/>
<path d="M18.3252 14.6602V25.6553H7.33008C7.33008 27.8299 7.97493 29.9557 9.18309 31.7639C10.3913 33.572 12.1085 34.9813 14.1176 35.8135C16.1267 36.6457 18.3374 36.8634 20.4703 36.4392C22.6031 36.0149 24.5622 34.9677 26.0999 33.43C27.6376 31.8923 28.6848 29.9332 29.1091 27.8003C29.5333 25.6675 29.3156 23.4567 28.4834 21.4476C27.6512 19.4385 26.2419 17.7213 24.4338 16.5132C22.6256 15.305 20.4998 14.6602 18.3252 14.6602Z" fill="#C12026"/>
</svg>
