<svg width="21" height="18" viewBox="0 0 21 18" fill="none" xmlns="http://www.w3.org/2000/svg">
<path d="M10.4573 1.22634C14.2862 1.22634 17.4463 4.13755 17.8439 7.86241L16.6709 6.68943L15.9204 7.43992L18.0434 9.56296C18.1469 9.66646 18.2828 9.71847 18.4187 9.71847C18.5546 9.71847 18.6904 9.66646 18.7939 9.56296L20.917 7.43992L20.1665 6.68943L18.9133 7.94255C18.5487 3.59405 14.8987 0.164825 10.4573 0.164825C10.2678 0.164825 10.0794 0.171195 9.89258 0.183402L9.96104 1.24279C10.125 1.23218 10.2906 1.22634 10.4573 1.22634Z" fill="white"/>
<path d="M3.4213 6.25927L2.41658 5.9164C2.29769 6.26404 2.20162 6.6239 2.12891 6.98747L3.16972 7.19552C3.23341 6.8776 3.31833 6.56286 3.4213 6.25927Z" fill="white"/>
<path fill-rule="evenodd" clip-rule="evenodd" d="M2.24313 5.56154L3.51197 5.99454L3.42178 6.25883L3.68624 6.34852C3.58709 6.64086 3.50531 6.94397 3.44402 7.24994L3.38918 7.52364L1.80078 7.20612L1.85555 6.93226C1.93057 6.55716 2.02978 6.18539 2.15282 5.8256L2.24313 5.56154ZM3.07253 6.43471L2.59574 6.272C2.54626 6.43557 2.50184 6.60149 2.46253 6.76885L2.95619 6.86753C2.99089 6.72189 3.02977 6.57738 3.07253 6.43471Z" fill="white"/>
<path d="M5.55875 3.07086L4.85868 2.27313C4.58056 2.51728 4.31678 2.78107 4.07422 3.05706L4.87248 3.7566C5.08425 3.51511 5.31566 3.28423 5.55875 3.07086Z" fill="white"/>
<path fill-rule="evenodd" clip-rule="evenodd" d="M4.88418 1.87886L5.76848 2.88652L5.55859 3.07071L5.7428 3.28059C5.50862 3.48614 5.28584 3.70844 5.08228 3.94057L4.89822 4.15046L3.67969 3.08262L3.8643 2.87257C4.1148 2.58753 4.38711 2.31522 4.67429 2.06312L4.88418 1.87886ZM5.1678 3.04878L4.83597 2.67066C4.71083 2.78822 4.58926 2.90972 4.47201 3.03434L4.85033 3.36587C4.95287 3.25734 5.05893 3.15144 5.1678 3.04878Z" fill="white"/>
<path d="M8.99788 1.36938L8.79035 0.328568C8.42837 0.400751 8.06852 0.497349 7.71875 0.616238L8.06109 1.62149C8.36628 1.51693 8.68154 1.43254 8.99788 1.36938Z" fill="white"/>
<path fill-rule="evenodd" clip-rule="evenodd" d="M9.00856 0L9.27069 1.31469L8.99683 1.36929L9.05151 1.64314C8.74694 1.70395 8.44366 1.78516 8.15055 1.88558L7.88588 1.97626L7.36328 0.441671L7.62783 0.351749C7.98913 0.228941 8.36076 0.12918 8.73469 0.0546132L9.00856 0ZM8.66936 1.15506L8.57098 0.661644C8.404 0.700921 8.23794 0.745499 8.07366 0.795148L8.23592 1.27159C8.37919 1.22849 8.52394 1.18962 8.66936 1.15506Z" fill="white"/>
<path d="M7.16477 1.99267L6.69398 1.04155C6.36385 1.20502 6.04115 1.39185 5.73438 1.59725L6.32511 2.47884C6.5942 2.29892 6.87604 2.13544 7.16477 1.99267Z" fill="white"/>
<path fill-rule="evenodd" clip-rule="evenodd" d="M6.82113 0.667542L7.41582 1.86897L7.16554 1.99285L7.28932 2.24318C7.0117 2.38046 6.74035 2.53782 6.4811 2.71117L6.24919 2.86624L5.34766 1.52082L5.57979 1.36539C5.89664 1.15324 6.22985 0.960333 6.57084 0.791481L6.82113 0.667542ZM6.79363 1.87099L6.5705 1.42021C6.41967 1.50141 6.27096 1.58752 6.1253 1.67802L6.40534 2.09594C6.53261 2.01723 6.66222 1.94212 6.79363 1.87099Z" fill="white"/>
<path d="M4.27962 4.52588L3.3975 3.93515C3.1921 4.2414 3.00527 4.5641 2.8418 4.89423L3.79345 5.36554C3.93622 5.07628 4.09969 4.79392 4.27962 4.52588Z" fill="white"/>
<path fill-rule="evenodd" clip-rule="evenodd" d="M3.32019 3.54742L4.66646 4.44899L4.51064 4.68111C4.33761 4.93888 4.18033 5.21053 4.04302 5.48872L3.91926 5.73947L2.4668 5.02013L2.59071 4.76989C2.75956 4.4289 2.9525 4.09563 3.16475 3.77918L3.32019 3.54742ZM3.47715 4.32472C3.38669 4.47019 3.3006 4.61881 3.21941 4.76961L3.67061 4.99307C3.74167 4.86159 3.81673 4.73195 3.89542 4.60482L3.47715 4.32472Z" fill="white"/>
<path d="M2.00361 9.37143C2.36824 13.7199 6.01827 17.1492 10.4597 17.1492C10.6491 17.1492 10.8375 17.1428 11.0244 17.1306L10.9559 16.0712C10.7919 16.0818 10.6263 16.0876 10.4597 16.0876C6.63076 16.0876 3.47063 13.1764 3.07309 9.45158L4.24606 10.6246L4.99656 9.87406L2.87353 7.75103C2.666 7.5435 2.33056 7.5435 2.12303 7.75103L0 9.87406L0.750493 10.6246L2.00361 9.37143Z" fill="white"/>
<path d="M16.8395 14.2573L16.0412 13.5578C15.83 13.7993 15.5986 14.0301 15.3555 14.2435L16.055 15.0412C16.3337 14.7971 16.5974 14.5333 16.8395 14.2573Z" fill="white"/>
<path fill-rule="evenodd" clip-rule="evenodd" d="M16.0184 13.1635L17.237 14.2314L17.0528 14.4414C16.8027 14.7266 16.5302 14.999 16.2424 15.2512L16.0325 15.4352L14.9648 14.2177L15.1746 14.0336C15.4088 13.828 15.6315 13.6058 15.8344 13.3739L16.0184 13.1635ZM16.0667 13.9485C15.9643 14.057 15.8583 14.1629 15.7495 14.2655L16.0811 14.6436C16.2064 14.5261 16.3279 14.4046 16.4451 14.28L16.0667 13.9485Z" fill="white"/>
<path d="M18.0726 12.4208L17.1209 11.9494C16.9782 12.2382 16.8147 12.5205 16.6348 12.7886L17.5169 13.3793C17.7218 13.0731 17.9091 12.7504 18.0726 12.4208Z" fill="white"/>
<path fill-rule="evenodd" clip-rule="evenodd" d="M16.9974 11.5749L18.1994 12.1702L18.0755 12.4204L18.3257 12.5445C18.1568 12.8851 17.9633 13.2182 17.7519 13.5343L17.5966 13.7665L16.25 12.8647L16.4058 12.6326C16.5789 12.3748 16.7362 12.1031 16.8735 11.8254L16.9974 11.5749ZM17.6969 12.5445L17.2457 12.3211C17.1747 12.4524 17.0997 12.5819 17.0211 12.7089L17.4392 12.9889C17.5295 12.8435 17.6157 12.695 17.6969 12.5445Z" fill="white"/>
<path d="M18.7865 10.3268L17.7457 10.1188C17.6826 10.4367 17.5976 10.7514 17.4941 11.055L18.4989 11.3979C18.6178 11.0497 18.7144 10.6899 18.7865 10.3268Z" fill="white"/>
<path fill-rule="evenodd" clip-rule="evenodd" d="M17.5252 9.79021L18.8402 10.0531L18.7855 10.3269L19.0594 10.3814C18.9848 10.7564 18.885 11.1282 18.7621 11.4882L18.6718 11.7524L17.1387 11.2292L17.2288 10.965C17.3283 10.6729 17.41 10.3701 17.4707 10.0644L17.5252 9.79021ZM18.4525 10.5451L17.959 10.4465C17.9244 10.5921 17.8855 10.7366 17.8426 10.8793L18.3191 11.0419C18.3687 10.8782 18.4132 10.7122 18.4525 10.5451Z" fill="white"/>
<path d="M13.748 15.321L14.2188 16.2721C14.549 16.1086 14.8717 15.9218 15.1784 15.7164L14.5877 14.8348C14.3186 15.0147 14.0368 15.1782 13.748 15.321Z" fill="white"/>
<path fill-rule="evenodd" clip-rule="evenodd" d="M14.6656 14.4476L15.5671 15.7931L15.335 15.9485C15.0181 16.1606 14.6849 16.3535 14.3439 16.5224L14.0936 16.6463L13.375 15.1945L13.6254 15.0707C13.903 14.9334 14.1744 14.7761 14.4336 14.6027L14.6656 14.4476ZM14.1211 15.4429L14.3442 15.8937C14.4951 15.8125 14.6438 15.7264 14.7894 15.6359L14.5094 15.2179C14.3821 15.2967 14.2525 15.3718 14.1211 15.4429Z" fill="white"/>
<path d="M11.916 15.945L12.1235 16.9858C12.4855 16.9137 12.8454 16.8171 13.1951 16.6982L12.8528 15.6929C12.5471 15.7975 12.2323 15.8819 11.916 15.945Z" fill="white"/>
<path fill-rule="evenodd" clip-rule="evenodd" d="M13.0235 15.3381L13.5461 16.8725L13.2815 16.9624C12.9202 17.0853 12.5486 17.185 12.1747 17.2596L11.9008 17.3142L11.6387 15.9995L11.9125 15.9449L11.8579 15.6711C12.1623 15.6103 12.4651 15.5291 12.759 15.4286L13.0235 15.3381ZM12.24 16.1591L12.3384 16.6525C12.5054 16.6133 12.6714 16.5687 12.8357 16.519L12.6734 16.0425C12.5301 16.0857 12.3854 16.1245 12.24 16.1591Z" fill="white"/>
<path d="M11.4208 11.9644C10.1722 11.9644 9.0881 11.2566 8.54727 10.2198H11.4208V9.22288H8.2233C8.19837 9.06089 8.18094 8.89391 8.18094 8.72444C8.18094 8.55498 8.19839 8.38799 8.2233 8.226H11.4208V7.22909H8.54727C9.0881 6.19233 10.1697 5.48452 11.4208 5.48452C12.2258 5.48452 12.961 5.77861 13.5268 6.2646L14.4115 5.38484C13.619 4.67455 12.5698 4.2384 11.4208 4.2384C9.46941 4.2384 7.81208 5.48702 7.19648 7.22909H5.43945V8.226H6.96471C6.94478 8.39049 6.9348 8.55498 6.9348 8.72444C6.9348 8.89391 6.94478 9.05839 6.96471 9.22288H5.43945V10.2198H7.19648C7.81208 11.9619 9.46941 13.2105 11.4208 13.2105C12.5698 13.2105 13.619 12.7743 14.4115 12.064L13.5268 11.1818C12.961 11.6678 12.2258 11.9644 11.4208 11.9644Z" fill="white"/>
</svg>
