<svg width="41" height="41" viewBox="0 0 41 41" fill="none" xmlns="http://www.w3.org/2000/svg">
<path d="M39.2274 31.8106L34.7924 28.8537L30.8498 26.2258C30.0889 25.7196 29.0664 25.8856 28.5047 26.6066L26.0651 29.7428C25.541 30.4234 24.5983 30.6189 23.8468 30.2029C22.1915 29.2821 20.234 28.4151 15.9149 24.0904C11.5957 19.7658 10.7232 17.8138 9.8024 16.1584C9.38633 15.4069 9.5819 14.4643 10.2625 13.9403L13.3987 11.5007C14.1196 10.9391 14.2857 9.91651 13.7794 9.15556L11.2323 5.3344L8.19462 0.777908C7.67761 0.00234565 6.64264 -0.230495 5.84332 0.24886L2.34009 2.35052C1.39333 2.90832 0.69739 3.80906 0.396416 4.86598C-0.56159 8.35883 -0.754739 16.0639 11.5936 28.4123C23.942 40.7606 31.6464 40.5669 35.1392 39.6088C36.1961 39.3079 37.0969 38.6119 37.6547 37.6651L39.7563 34.1619C40.2358 33.3626 40.0029 32.3277 39.2274 31.8106Z" fill="#C12026"/>
<path d="M22.76 6.2077C29.2328 6.21489 34.4784 11.4604 34.4856 17.9333C34.4856 18.3142 34.7944 18.623 35.1753 18.623C35.5562 18.623 35.8651 18.3142 35.8651 17.9333C35.8571 10.6989 29.9945 4.83621 22.7601 4.82824C22.3792 4.82824 22.0703 5.13703 22.0703 5.51801C22.0702 5.89884 22.379 6.2077 22.76 6.2077Z" fill="#C12026"/>
<path d="M22.7601 10.3461C26.9483 10.351 30.3422 13.745 30.3472 17.9332C30.3472 18.3141 30.656 18.623 31.0369 18.623C31.4178 18.623 31.7267 18.3142 31.7267 17.9332C31.721 12.9834 27.7099 8.97226 22.7601 8.96655C22.3792 8.96655 22.0703 9.27534 22.0703 9.65632C22.0703 10.0373 22.3791 10.3461 22.7601 10.3461Z" fill="#C12026"/>
<path d="M22.76 14.4846C24.6638 14.4868 26.2064 16.0295 26.2087 17.9333C26.2087 18.3142 26.5175 18.623 26.8985 18.623C27.2794 18.623 27.5882 18.3143 27.5882 17.9333C27.5852 15.268 25.4253 13.1082 22.7601 13.1051C22.3792 13.1051 22.0703 13.4139 22.0703 13.7949C22.0702 14.1758 22.379 14.4846 22.76 14.4846Z" fill="#C12026"/>
</svg>
