<svg width="15" height="15" viewBox="0 0 15 15" fill="none" xmlns="http://www.w3.org/2000/svg">
<path d="M14.6967 14.3659L13.0403 13.1827L12.7654 13.568L13.821 14.3219H0.598253V1.0994L1.35238 2.15475L1.73737 1.87979L0.554241 0.223404C0.494374 0.139638 0.387419 0.104144 0.289219 0.135616C0.191492 0.16685 0.125 0.257952 0.125 0.360884V14.5585C0.125 14.6891 0.230772 14.7951 0.361627 14.7951H14.5592C14.6622 14.7951 14.753 14.7286 14.7845 14.6307C14.816 14.5327 14.7805 14.4257 14.6967 14.3659Z" fill="#C12026"/>
<path fill-rule="evenodd" clip-rule="evenodd" d="M0.250816 0.0170224C0.400511 -0.030908 0.563716 0.0232413 0.65503 0.15101L1.91055 1.90874L1.32295 2.3284L0.722252 1.48776V14.1974H13.4319L12.5912 13.5969L13.0108 13.009L14.7686 14.2646C14.8963 14.3558 14.9506 14.5191 14.9025 14.6687C14.8546 14.818 14.7159 14.9196 14.5587 14.9196H0.361126C0.161431 14.9196 0 14.7578 0 14.5585V0.360881C0 0.203955 0.101429 0.0648128 0.250816 0.0170224ZM14.6238 14.4672C14.6238 14.4671 14.6238 14.4672 14.6238 14.4672L13.0688 13.3564L12.9385 13.539L14.209 14.4464H0.473253V0.711024L1.38081 1.98109L1.5632 1.85084L0.45245 0.295791C0.452444 0.295782 0.452457 0.2958 0.45245 0.295791C0.424047 0.256074 0.373383 0.239215 0.326715 0.254172C0.280699 0.268879 0.248999 0.311974 0.248999 0.360881V14.5585C0.248999 14.6204 0.299112 14.6706 0.361126 14.6706H14.5587C14.6074 14.6706 14.6505 14.6392 14.6655 14.5926C14.6803 14.5463 14.6636 14.4956 14.6238 14.4672Z" fill="#C12026"/>
<path d="M1.61798 3.59868L1.6123 3.60436L1.61396 3.60602C1.56971 3.69854 1.54297 3.801 1.54297 3.91032C1.54297 4.30241 1.86076 4.6202 2.25285 4.6202C2.36217 4.6202 2.46463 4.59346 2.55715 4.54921L3.98022 5.97228C3.93597 6.06481 3.90924 6.16726 3.90924 6.27659C3.90924 6.66868 4.22703 6.98647 4.61912 6.98647C4.72844 6.98647 4.8309 6.95973 4.92342 6.91548L6.34649 8.33855C6.30224 8.43107 6.2755 8.53353 6.2755 8.64285C6.2755 9.03494 6.59329 9.35273 6.98538 9.35273C7.0947 9.35273 7.19716 9.32599 7.28968 9.28174L8.71276 10.7048C8.66851 10.7973 8.64177 10.8998 8.64177 11.0091C8.64177 11.4012 8.95956 11.719 9.35165 11.719C9.46097 11.719 9.56343 11.6923 9.65595 11.648L9.77592 11.768L10.1105 11.4334L9.99054 11.3134C10.0348 11.2209 10.0615 11.1184 10.0615 11.0091C10.0615 10.617 9.74374 10.2992 9.35165 10.2992C9.24233 10.2992 9.13987 10.326 9.04735 10.3702L7.62427 8.94715C7.66852 8.85463 7.69526 8.75217 7.69526 8.64285C7.69526 8.25076 7.37747 7.93297 6.98538 7.93297C6.87606 7.93297 6.7736 7.95971 6.68108 8.00396L5.25801 6.58089C5.30226 6.48837 5.32899 6.38591 5.32899 6.27659C5.32899 5.8845 5.01121 5.56671 4.61912 5.56671C4.50979 5.56671 4.40733 5.59344 4.31481 5.63769L2.89174 4.21462C2.93599 4.1221 2.96273 4.01964 2.96273 3.91032C2.96273 3.51823 2.64494 3.20044 2.25285 3.20044C2.14353 3.20044 2.04107 3.22718 1.94855 3.27143L1.94689 3.26977L1.94121 3.27545C1.80066 3.34455 1.68707 3.45813 1.61798 3.59868Z" fill="#C12026"/>
<path d="M1.54297 5.80347H2.48948V13.3755H1.54297V5.80347Z" fill="#C12026"/>
<path fill-rule="evenodd" clip-rule="evenodd" d="M1.41992 5.67896H2.61543V13.5H1.41992V5.67896ZM1.66892 5.92795V13.251H2.36643V5.92795H1.66892Z" fill="#C12026"/>
<path d="M3.91016 8.16968H4.85666V13.3755H3.91016V8.16968Z" fill="#C12026"/>
<path fill-rule="evenodd" clip-rule="evenodd" d="M3.78516 8.04517H4.98066V13.5H3.78516V8.04517ZM4.03416 8.29416V13.251H4.73166V8.29416H4.03416Z" fill="#C12026"/>
<path d="M6.27539 10.5359H7.2219V13.3754H6.27539V10.5359Z" fill="#C12026"/>
<path fill-rule="evenodd" clip-rule="evenodd" d="M6.15234 10.4114H7.34785V13.4999H6.15234V10.4114ZM6.40134 10.6604V13.2509H7.09885V10.6604H6.40134Z" fill="#C12026"/>
<path d="M8.64258 12.9021H9.58908V13.3754H8.64258V12.9021Z" fill="#C12026"/>
<path fill-rule="evenodd" clip-rule="evenodd" d="M8.51758 12.7776H9.71308V13.4998H8.51758V12.7776ZM8.76658 13.0266V13.2508H9.46408V13.0266H8.76658Z" fill="#C12026"/>
<path d="M10.0623 0.597521C11.7693 0.597521 13.1782 1.89542 13.3555 3.55606L12.8325 3.03312L12.4979 3.36771L13.4444 4.31422C13.4906 4.36036 13.5511 4.38355 13.6117 4.38355C13.6723 4.38355 13.7329 4.36036 13.779 4.31422L14.7255 3.36771L14.3909 3.03312L13.8323 3.59179C13.6697 1.65311 12.0424 0.124268 10.0623 0.124268C9.97784 0.124268 9.89384 0.127107 9.81055 0.13255L9.84107 0.604856C9.91419 0.600124 9.98802 0.597521 10.0623 0.597521Z" fill="#C12026"/>
<path d="M6.9258 2.84134L6.47786 2.68848C6.42486 2.84347 6.38203 3.0039 6.34961 3.16599L6.81363 3.25875C6.84203 3.11701 6.87989 2.97669 6.9258 2.84134Z" fill="#C12026"/>
<path fill-rule="evenodd" clip-rule="evenodd" d="M6.40034 2.53027L6.96602 2.72332L6.92581 2.84114L7.04371 2.88113C6.99951 3.01147 6.96305 3.1466 6.93572 3.28301L6.91128 3.40503L6.20312 3.26347L6.22754 3.14138C6.26099 2.97415 6.30522 2.8084 6.36008 2.648L6.40034 2.53027ZM6.7701 2.91956L6.55754 2.84702C6.53548 2.91994 6.51567 2.99391 6.49815 3.06852L6.71824 3.11252C6.73371 3.04759 6.75104 2.98316 6.7701 2.91956Z" fill="#C12026"/>
<path d="M7.87864 1.41986L7.56653 1.06421C7.44254 1.17306 7.32494 1.29066 7.2168 1.41371L7.57268 1.72558C7.6671 1.61792 7.77027 1.51498 7.87864 1.41986Z" fill="#C12026"/>
<path fill-rule="evenodd" clip-rule="evenodd" d="M7.57801 0.888428L7.97226 1.33767L7.87868 1.41979L7.96081 1.51336C7.8564 1.605 7.75708 1.7041 7.66633 1.8076L7.58427 1.90117L7.04102 1.4251L7.12332 1.33145C7.235 1.20437 7.35641 1.08297 7.48444 0.970576L7.57801 0.888428ZM7.70446 1.41001L7.55652 1.24143C7.50073 1.29385 7.44653 1.34801 7.39425 1.40357L7.56292 1.55138C7.60864 1.50299 7.65592 1.45578 7.70446 1.41001Z" fill="#C12026"/>
<path d="M9.41207 0.661291L9.31955 0.197266C9.15817 0.229447 8.99773 0.272513 8.8418 0.325517L8.99442 0.773688C9.13048 0.727073 9.27104 0.689449 9.41207 0.661291Z" fill="#C12026"/>
<path fill-rule="evenodd" clip-rule="evenodd" d="M9.4171 0.0507812L9.53397 0.636905L9.41187 0.66125L9.43625 0.783339C9.30047 0.81045 9.16526 0.846655 9.03458 0.891426L8.91658 0.931853L8.68359 0.247691L8.80154 0.207601C8.96261 0.152849 9.1283 0.108373 9.29501 0.0751293L9.4171 0.0507812ZM9.26588 0.565741L9.22202 0.34576C9.14758 0.363271 9.07354 0.383145 9.0003 0.40528L9.07264 0.61769C9.13651 0.598475 9.20105 0.581147 9.26588 0.565741Z" fill="#C12026"/>
<path d="M8.59474 0.939172L8.38485 0.515137C8.23767 0.588018 8.0938 0.67131 7.95703 0.762885L8.2204 1.15592C8.34037 1.07571 8.46602 1.00282 8.59474 0.939172Z" fill="#C12026"/>
<path fill-rule="evenodd" clip-rule="evenodd" d="M8.44207 0.348389L8.7072 0.88402L8.59562 0.939249L8.65081 1.05085C8.52703 1.11205 8.40606 1.18221 8.29048 1.25949L8.18709 1.32863L7.78516 0.728802L7.88865 0.659511C8.02991 0.564928 8.17846 0.478923 8.33049 0.403644L8.44207 0.348389ZM8.42981 0.884921L8.33034 0.683947C8.26309 0.720149 8.19679 0.758541 8.13185 0.798889L8.2567 0.985207C8.31344 0.950118 8.37122 0.916632 8.42981 0.884921Z" fill="#C12026"/>
<path d="M7.30899 2.06854L6.91572 1.80518C6.82414 1.94171 6.74085 2.08558 6.66797 2.23276L7.09224 2.44288C7.15589 2.31392 7.22877 2.18804 7.30899 2.06854Z" fill="#C12026"/>
<path fill-rule="evenodd" clip-rule="evenodd" d="M6.88046 1.63232L7.48067 2.03427L7.4112 2.13775C7.33406 2.25267 7.26394 2.37378 7.20273 2.49781L7.14755 2.6096L6.5 2.2889L6.55524 2.17733C6.63052 2.02531 6.71654 1.87673 6.81116 1.73565L6.88046 1.63232ZM6.95044 1.97886C6.91011 2.04372 6.87173 2.10998 6.83553 2.17721L7.03669 2.27683C7.06837 2.21821 7.10184 2.16042 7.13692 2.10374L6.95044 1.97886Z" fill="#C12026"/>
<path d="M6.29366 4.22882C6.45622 6.16751 8.0835 7.69635 10.0636 7.69635C10.1481 7.69635 10.2321 7.69351 10.3154 7.68807L10.2848 7.21576C10.2117 7.22049 10.1379 7.2231 10.0636 7.2231C8.35657 7.2231 6.94769 5.9252 6.77046 4.26455L7.2934 4.7875L7.62799 4.45291L6.68149 3.5064C6.58897 3.41388 6.43942 3.41388 6.3469 3.5064L5.40039 4.45291L5.73498 4.7875L6.29366 4.22882Z" fill="#C12026"/>
<path d="M12.9077 6.40709L12.5518 6.09521C12.4576 6.20288 12.3545 6.30581 12.2461 6.40094L12.558 6.75659C12.6822 6.64774 12.7998 6.53013 12.9077 6.40709Z" fill="#C12026"/>
<path fill-rule="evenodd" clip-rule="evenodd" d="M12.542 5.91943L13.0852 6.39552L13.0031 6.48916C12.8916 6.61631 12.7702 6.73777 12.6418 6.85021L12.5482 6.93222L12.0723 6.38944L12.1658 6.30735C12.2702 6.21571 12.3695 6.11663 12.4599 6.01323L12.542 5.91943ZM12.5635 6.2694C12.5179 6.31778 12.4706 6.36498 12.4221 6.41072L12.5699 6.57931C12.6258 6.5269 12.68 6.47275 12.7322 6.4172L12.5635 6.2694Z" fill="#C12026"/>
<path d="M13.4574 5.5883L13.0332 5.37817C12.9695 5.5069 12.8966 5.63278 12.8164 5.75228L13.2097 6.01565C13.301 5.87911 13.3845 5.73524 13.4574 5.5883Z" fill="#C12026"/>
<path fill-rule="evenodd" clip-rule="evenodd" d="M12.9777 5.21118L13.5136 5.47659L13.4584 5.58816L13.5699 5.64348C13.4946 5.79531 13.4084 5.94382 13.3141 6.08473L13.2449 6.18826L12.6445 5.78624L12.714 5.68275C12.7911 5.56783 12.8613 5.44669 12.9225 5.32285L12.9777 5.21118ZM13.2896 5.64349L13.0884 5.54388C13.0568 5.6024 13.0233 5.66013 12.9883 5.71677L13.1747 5.84159C13.215 5.77677 13.2534 5.71058 13.2896 5.64349Z" fill="#C12026"/>
<path d="M13.7754 4.65477L13.3114 4.56201C13.2832 4.70375 13.2454 4.84407 13.1992 4.97942L13.6472 5.13228C13.7002 4.97705 13.7432 4.81662 13.7754 4.65477Z" fill="#C12026"/>
<path fill-rule="evenodd" clip-rule="evenodd" d="M13.2134 4.41553L13.7996 4.53272L13.7752 4.6548L13.8973 4.67908C13.8641 4.84629 13.8196 5.01205 13.7648 5.17255L13.7245 5.29034L13.041 5.05708L13.0812 4.93928C13.1256 4.80907 13.162 4.67406 13.1891 4.53779L13.2134 4.41553ZM13.6267 4.75209L13.4067 4.70811C13.3913 4.77304 13.374 4.83747 13.3549 4.90109L13.5673 4.97358C13.5894 4.90057 13.6092 4.8266 13.6267 4.75209Z" fill="#C12026"/>
<path d="M11.5293 6.8813L11.7392 7.30534C11.8864 7.23245 12.0302 7.14916 12.167 7.05759L11.9036 6.66455C11.7837 6.74477 11.658 6.81765 11.5293 6.8813Z" fill="#C12026"/>
<path fill-rule="evenodd" clip-rule="evenodd" d="M11.9386 6.49194L12.3406 7.09177L12.2371 7.16106C12.0958 7.25564 11.9473 7.34165 11.7952 7.41693L11.6837 7.47218L11.3633 6.82493L11.4749 6.76972C11.5987 6.70852 11.7197 6.63836 11.8353 6.56108L11.9386 6.49194ZM11.6959 6.93565L11.7954 7.13662C11.8626 7.10042 11.9289 7.06203 11.9939 7.02168L11.869 6.83536C11.8123 6.87045 11.7545 6.90394 11.6959 6.93565Z" fill="#C12026"/>
<path d="M10.7129 7.15952L10.8054 7.62354C10.9668 7.59136 11.1272 7.54829 11.2832 7.49529L11.1305 7.04712C10.9942 7.09373 10.8539 7.13136 10.7129 7.15952Z" fill="#C12026"/>
<path fill-rule="evenodd" clip-rule="evenodd" d="M11.2073 6.88892L11.4402 7.57302L11.3223 7.61311C11.1612 7.66786 10.9955 7.71233 10.8288 7.74558L10.7067 7.76992L10.5898 7.1838L10.7119 7.15946L10.6876 7.03737C10.8233 7.01026 10.9583 6.97406 11.0893 6.92926L11.2073 6.88892ZM10.8579 7.25496L10.9018 7.47495C10.9762 7.45743 11.0503 7.43756 11.1235 7.41543L11.0512 7.20299C10.9873 7.22221 10.9228 7.23954 10.8579 7.25496Z" fill="#C12026"/>
<path d="M10.4167 5.12365C9.97219 5.12365 9.58619 4.87165 9.39363 4.5025H10.4167V4.14756H9.27828C9.26941 4.08989 9.2632 4.03043 9.2632 3.97009C9.2632 3.90976 9.26941 3.8503 9.27828 3.79263H10.4167V3.43768H9.39363C9.58619 3.06855 9.9713 2.81654 10.4167 2.81654C10.7034 2.81654 10.9651 2.92125 11.1666 3.09428L11.4816 2.78105C11.1994 2.52815 10.8258 2.37286 10.4167 2.37286C9.72195 2.37286 9.13187 2.81743 8.91269 3.43768H8.28711V3.79263H8.83017C8.82307 3.85119 8.81952 3.90976 8.81952 3.97009C8.81952 4.03043 8.82307 4.089 8.83017 4.14756H8.28711V4.5025H8.91269C9.13187 5.12276 9.72195 5.56732 10.4167 5.56732C10.8258 5.56732 11.1994 5.41203 11.4816 5.15914L11.1666 4.84502C10.9651 5.01805 10.7034 5.12365 10.4167 5.12365Z" fill="#C12026"/>
<path fill-rule="evenodd" clip-rule="evenodd" d="M8.82854 3.31317C9.08642 2.68855 9.70024 2.24835 10.4182 2.24835C10.8593 2.24835 11.2622 2.41592 11.5661 2.68832L11.6643 2.77634L11.1742 3.2637L11.0869 3.18871C10.9071 3.0343 10.6739 2.94102 10.4182 2.94102C10.0995 2.94102 9.81524 3.08562 9.6265 3.31317H10.5427V3.91711H9.39089C9.38976 3.93487 9.38915 3.95252 9.38915 3.97008C9.38915 3.98764 9.38976 4.0053 9.39089 4.02305H10.5427V4.62699H9.62659C9.8155 4.85453 10.1002 4.99914 10.4182 4.99914C10.6736 4.99914 10.9069 4.90515 11.0869 4.75057L11.1743 4.67547L11.6642 5.16395L11.5661 5.25184C11.2622 5.52424 10.8593 5.69181 10.4182 5.69181C9.70024 5.69181 9.08642 5.25161 8.82854 4.62699H8.16406V4.02305H8.69733C8.69676 4.0055 8.69647 3.98785 8.69647 3.97008C8.69647 3.95231 8.69676 3.93466 8.69733 3.91711H8.16406V3.31317H8.82854ZM10.4182 2.49735C9.77799 2.49735 9.23374 2.90692 9.03153 3.47915L9.00219 3.56217H8.41306V3.66811H8.97211L8.95522 3.80759C8.94873 3.86115 8.94547 3.91472 8.94547 3.97008C8.94547 4.02545 8.94873 4.07901 8.95522 4.13257L8.97211 4.27205H8.41306V4.37799H9.00219L9.03153 4.46101C9.23374 5.03324 9.77799 5.44281 10.4182 5.44281C10.7477 5.44281 11.0523 5.33354 11.2977 5.15015L11.158 5.01087C10.9496 5.15966 10.6943 5.24814 10.4182 5.24814C9.92537 5.24814 9.49783 4.96865 9.2847 4.56007L9.18972 4.37799H10.2937V4.27205H9.17293L9.15668 4.16649C9.14721 4.10492 9.14015 4.03877 9.14015 3.97008C9.14015 3.90138 9.14722 3.83524 9.15668 3.77369L9.17291 3.66811H10.2937V3.56217H9.18972L9.2847 3.38009C9.4978 2.97157 9.92443 2.69202 10.4182 2.69202C10.6942 2.69202 10.9495 2.77974 11.1581 2.92852L11.2975 2.78989C11.0522 2.60658 10.7477 2.49735 10.4182 2.49735Z" fill="#C12026"/>
</svg>
