<svg width="46" height="31" viewBox="0 0 46 31" fill="none" xmlns="http://www.w3.org/2000/svg">
<path d="M30.752 15.6991L45.9223 25.2895V5.70366L30.752 15.6991Z" fill="#C12026"/>
<path d="M0.921875 5.70366V25.2895L16.0922 15.6991L0.921875 5.70366Z" fill="#C12026"/>
<path d="M43.1082 0H3.73393C2.33052 0 1.21679 1.04623 1.00586 2.39339L23.4211 17.1616L45.8363 2.39339C45.6253 1.04623 44.5116 0 43.1082 0Z" fill="#C12026"/>
<path d="M28.1743 17.3978L24.1947 20.019C23.9585 20.1737 23.6913 20.2496 23.4213 20.2496C23.1513 20.2496 22.8841 20.1737 22.6479 20.019L18.6683 17.395L1.01172 28.5632C1.22828 29.8991 2.33638 30.9369 3.73417 30.9369H43.1084C44.5062 30.9369 45.6143 29.8991 45.8309 28.5632L28.1743 17.3978Z" fill="#C12026"/>
</svg>
