<svg width="45" height="46" viewBox="0 0 45 46" fill="none" xmlns="http://www.w3.org/2000/svg">
<path d="M22.5078 1C13.705 0.998717 5.7493 6.24582 2.28456 14.338L2.01035 14.4289L2.11666 14.7479C-2.44519 25.9991 2.97751 38.8181 14.2287 43.3799C16.8565 44.4454 19.6656 44.9924 22.5013 44.9908C34.649 44.9927 44.4982 35.1464 44.5 22.9987C44.5018 10.851 34.6556 1.00174 22.5078 1ZM39.7607 34.0851L38.6313 32.9564V30.3272C38.6325 30.2138 38.6074 30.1016 38.5579 29.9995L35.6985 24.2887V21.5291C35.6985 21.284 35.5762 21.0551 35.3723 20.9191L33.1727 19.4527C33.0003 19.3376 32.7873 19.3008 32.5862 19.3515L29.8925 20.0246L25.368 18.0831L24.7455 13.7221L26.4707 11.9977H30.174L31.4204 13.871C31.533 14.0394 31.7103 14.1539 31.9102 14.187L36.3093 14.9202C36.4271 14.94 36.5479 14.9303 36.6612 14.8923L40.7128 13.5418C44.111 20.063 43.7475 27.9063 39.7607 34.0851ZM36.7367 8.22476L35.5446 9.01953L32.2211 8.35453L30.0648 7.63675C29.9328 7.59194 29.7907 7.58625 29.6557 7.62062L26.9297 8.30175L25.7346 7.90363L26.6203 6.13226H29.0999C29.2136 6.13236 29.3258 6.10605 29.4276 6.05528L31.9644 4.78688C33.7114 5.69877 35.3186 6.85646 36.7367 8.22476ZM14.4708 4.10355L16.2304 5.27664C16.3169 5.3342 16.4146 5.37269 16.5171 5.38955L20.0701 5.98196L19.7233 7.01941L17.872 7.63748C17.7062 7.69266 17.5655 7.8052 17.4753 7.95495L15.3696 11.464L11.9875 13.4934L7.00184 14.2053C6.64048 14.2564 6.37177 14.5655 6.37131 14.9304V17.13C6.37131 17.3244 6.44866 17.5109 6.58613 17.6483L7.83767 18.8999V20.1595L4.78764 18.1256L3.68127 14.8065C5.78623 9.99686 9.64432 6.16966 14.4708 4.10355ZM12.3834 28.1423L9.06941 27.4788L7.83767 25.0219V23.299L10.5695 20.5671L11.5806 22.59C11.7047 22.8385 11.9589 22.9955 12.2368 22.9954H16.954L18.9402 26.3057C19.0727 26.5263 19.3112 26.6612 19.5686 26.6613H21.6068L21.0936 29.2326L18.3178 32.0084C18.18 32.1458 18.1025 32.3322 18.1022 32.5268V34.3597L15.4627 36.3393C15.2782 36.4778 15.1695 36.6951 15.1695 36.9258V39.5741L14.2574 39.272L12.9699 36.0519V28.8609C12.97 28.5124 12.7248 28.212 12.3834 28.1423ZM10.1794 39.4133C3.26656 34.227 0.343098 25.2661 2.86744 17.0009L3.47671 18.828C3.52803 18.9826 3.6294 19.1158 3.76485 19.2063L7.41976 21.6427L6.58613 22.4771C6.44866 22.6145 6.37131 22.8009 6.37131 22.9954V25.195C6.37122 25.3087 6.39752 25.4209 6.44829 25.5227L7.91465 28.4554C8.0162 28.658 8.20563 28.8022 8.42788 28.8462L11.5072 29.4613V36.1927C11.5071 36.2858 11.5248 36.3782 11.5593 36.4647L13.0257 40.1306C13.1059 40.3308 13.2704 40.4856 13.4751 40.5536L15.6746 41.2868C15.7481 41.3117 15.8251 41.3246 15.9027 41.3249C16.3076 41.3249 16.6358 40.9967 16.6358 40.5918V37.2924L19.2753 35.3129C19.4599 35.1744 19.5686 34.9571 19.5686 34.7263V32.8303L22.2865 30.1124C22.3886 30.01 22.4583 29.8796 22.4866 29.7377L23.2198 26.0718C23.2992 25.6747 23.0416 25.2885 22.6445 25.2092C22.5973 25.1997 22.5494 25.195 22.5013 25.195H19.9835L17.9974 21.8846C17.8648 21.6641 17.6264 21.5291 17.369 21.5291H12.6899L11.4303 19.0018C11.3248 18.7908 11.1242 18.6434 10.8914 18.6059C10.6586 18.5656 10.4209 18.6424 10.2557 18.8112L9.30403 19.7592V18.5963C9.30403 18.4019 9.22668 18.2154 9.08921 18.078L7.83767 16.8264V15.5661L12.3409 14.9231C12.4376 14.9091 12.5306 14.8759 12.6143 14.8256L16.2802 12.626C16.3831 12.5643 16.4692 12.4781 16.531 12.3753L18.5912 8.94181L20.5334 8.29368C20.7527 8.22174 20.9249 8.04972 20.9968 7.83031L21.73 5.63077C21.857 5.24631 21.6483 4.8316 21.2639 4.70458C21.2284 4.69285 21.192 4.68387 21.1552 4.67763L16.9115 3.97011L16.1659 3.47302C20.7797 1.97128 25.7769 2.15714 30.2664 3.99724L28.9269 4.6659H26.1672C25.8879 4.66434 25.6321 4.82161 25.5073 5.07135L24.041 8.00407C23.8603 8.36645 24.0076 8.80672 24.37 8.98736C24.4009 9.00276 24.4328 9.01596 24.4655 9.02686L26.665 9.76004C26.797 9.80486 26.939 9.81054 27.0741 9.77617L29.8001 9.09505L31.7973 9.76004C31.8259 9.77031 31.8553 9.77819 31.8853 9.7835L35.5512 10.5167C35.7418 10.5555 35.9401 10.5165 36.1018 10.4082L37.7705 9.29521C38.5918 10.2099 39.3298 11.1961 39.9759 12.2419L36.3687 13.4443L32.463 12.7932L31.1726 10.8576C31.0373 10.6548 30.81 10.5325 30.5663 10.5313H26.1672C25.9727 10.5313 25.7863 10.6087 25.6488 10.7462L23.4493 12.9457C23.286 13.1089 23.2091 13.3396 23.2418 13.5682L23.975 18.7004C24.0119 18.9542 24.1787 19.1702 24.4149 19.2701L29.5471 21.4697C29.6941 21.5334 29.8582 21.5465 30.0134 21.5071L32.6316 20.8523L34.2322 21.9213V24.4618C34.2309 24.5752 34.256 24.6874 34.3055 24.7895L37.1649 30.5003V33.2599C37.1649 33.4544 37.2422 33.6408 37.3797 33.7783L38.9135 35.3129C32.1112 44.3798 19.2464 46.2157 10.1794 39.4133Z" fill="#C12026" stroke="#C12026" stroke-width="0.2"/>
</svg>
