<svg width="18" height="18" viewBox="0 0 18 18" fill="none" xmlns="http://www.w3.org/2000/svg">
<path d="M13.0325 0H4.96724C2.22831 0 0 2.22841 0 4.96735V13.0327C0 15.7717 2.22831 18 4.96724 18H13.0325C15.7717 18 18 15.7716 18 13.0327V4.96735C18.0001 2.22841 15.7717 0 13.0325 0ZM16.4031 13.0327C16.4031 14.8911 14.8911 16.403 13.0327 16.403H4.96724C3.10892 16.4031 1.59705 14.8911 1.59705 13.0327V4.96735C1.59705 3.10903 3.10892 1.59705 4.96724 1.59705H13.0325C14.891 1.59705 16.403 3.10903 16.403 4.96735V13.0327H16.4031Z" fill="#F3F3F3" fill-opacity="0.7"/>
<path d="M8.99996 4.36206C6.44245 4.36206 4.36182 6.44269 4.36182 9.0002C4.36182 11.5576 6.44245 13.6381 8.99996 13.6381C11.5575 13.6381 13.6381 11.5576 13.6381 9.0002C13.6381 6.44269 11.5575 4.36206 8.99996 4.36206ZM8.99996 12.041C7.32317 12.041 5.95886 10.6769 5.95886 9.0001C5.95886 7.3232 7.32306 5.959 8.99996 5.959C10.6769 5.959 12.0411 7.3232 12.0411 9.0001C12.0411 10.6769 10.6768 12.041 8.99996 12.041Z" fill="#F3F3F3" fill-opacity="0.7"/>
<path d="M13.8328 3.00806C13.5251 3.00806 13.2228 3.13263 13.0055 3.35089C12.7871 3.56809 12.6616 3.87046 12.6616 4.17922C12.6616 4.48703 12.7873 4.7893 13.0055 5.00756C13.2227 5.22476 13.5251 5.35039 13.8328 5.35039C14.1416 5.35039 14.4429 5.22476 14.6611 5.00756C14.8794 4.7893 15.004 4.48692 15.004 4.17922C15.004 3.87046 14.8794 3.56809 14.6611 3.35089C14.4439 3.13263 14.1416 3.00806 13.8328 3.00806Z" fill="#F3F3F3" fill-opacity="0.7"/>
</svg>
