<svg width="45" height="50" viewBox="0 0 45 50" fill="none" xmlns="http://www.w3.org/2000/svg">
<path d="M33.6034 11.2815C29.6302 8.00884 24.4336 6.6189 19.3572 7.47122C18.778 7.56814 18.207 7.69737 17.644 7.85003C17.4825 7.89364 17.321 7.9413 17.1594 7.98895C13.8038 9.00231 10.8232 10.9861 8.59302 13.6905C2.34793 21.2607 3.42216 32.4602 10.9923 38.7052C14.1775 41.3328 18.1784 42.7692 22.3077 42.7675C23.623 42.768 24.9343 42.6231 26.2177 42.3354C26.6345 42.2417 27.0448 42.1278 27.4527 42.005C30.8091 40.9928 33.7909 39.0098 36.0223 36.3059C42.2647 28.7276 41.1817 17.5239 33.6034 11.2815ZM10.4475 14.0257C10.8085 13.6364 11.1881 13.2689 11.5783 12.9199C11.6081 12.8933 11.6372 12.8642 11.6679 12.8392C12.0467 12.5072 12.4425 12.1978 12.848 11.9047C12.9005 11.8667 12.9513 11.8239 13.0046 11.79C13.402 11.5105 13.8112 11.2501 14.2323 11.0089C14.2978 10.971 14.3632 10.9282 14.4294 10.895C14.8473 10.6613 15.2748 10.4473 15.712 10.2529L15.9293 10.1576C16.2063 10.0389 16.4947 9.94115 16.7758 9.83453C15.2865 11.4493 14.1453 13.3533 13.423 15.4278C12.3864 15.0582 11.3871 14.5911 10.4386 14.0329L10.4475 14.0257ZM9.41364 15.2849C10.5213 15.9609 11.6957 16.5208 12.9182 16.956C12.2446 19.3103 11.8791 21.7422 11.8311 24.1905H6.18932C6.35207 20.9669 7.47497 17.8655 9.41364 15.2849ZM9.41364 34.7115C7.47507 32.1308 6.35217 29.0295 6.18932 25.8059H11.8311C11.879 28.2542 12.2445 30.6861 12.9182 33.0404C11.6959 33.4759 10.5215 34.0359 9.41364 34.7115ZM15.9277 39.8363C15.859 39.8089 15.7888 39.779 15.7193 39.7467C15.2799 39.5504 14.8486 39.3356 14.427 39.1005C14.364 39.0658 14.3026 39.0287 14.2396 38.9931C13.8164 38.7508 13.402 38.4875 13.0006 38.204C12.953 38.1701 12.9061 38.1345 12.8585 38.0998C12.4481 37.8042 12.0508 37.4908 11.6655 37.1556C11.6396 37.1322 11.6146 37.1072 11.5847 37.0845C11.1865 36.7308 10.8021 36.3576 10.437 35.9651C11.3861 35.4065 12.386 34.939 13.423 34.5686C14.1458 36.6423 15.2873 38.5454 16.7766 40.1594C16.4923 40.056 16.2055 39.9583 15.9277 39.8363ZM21.5 41.0778C18.7894 40.6311 16.426 37.9665 14.9682 34.0864C17.0973 33.4975 19.2913 33.1752 21.5 33.1268V41.0778ZM21.5 31.5131C19.119 31.5621 16.7538 31.9111 14.4601 32.5518C13.8361 30.3555 13.4951 28.0885 13.4456 25.8059H21.5V31.5131ZM21.5 24.1905H13.4456C13.4948 21.9085 13.8355 19.642 14.4593 17.4462C16.752 18.0954 19.1178 18.4517 21.5 18.5068V24.1905ZM21.5 16.8712C19.2915 16.8221 17.0977 16.4993 14.9688 15.9102C16.4226 12.0341 18.7898 9.3693 21.5 8.92022V16.8712ZM35.2017 15.2849C37.1403 17.8655 38.2632 20.9669 38.426 24.1905H32.7843C32.7363 21.7422 32.3708 19.3103 31.6971 16.956C32.9195 16.5205 34.0939 15.9605 35.2017 15.2849ZM28.6852 10.1592L28.8985 10.2505C29.3362 10.446 29.7659 10.66 30.1843 10.8967C30.2489 10.933 30.3127 10.971 30.3774 11.0081C30.799 11.2504 31.2109 11.5113 31.6099 11.7924C31.6608 11.8279 31.71 11.8667 31.7601 11.903C32.164 12.197 32.5678 12.508 32.9466 12.8416C32.9749 12.8666 33.0016 12.8933 33.0274 12.9183C33.424 13.2705 33.8068 13.6404 34.1711 14.0337C33.2242 14.591 32.2269 15.0578 31.1923 15.4278C30.4694 13.3537 29.3277 11.4503 27.838 9.83615C28.1223 9.93954 28.4082 10.0373 28.6852 10.1592ZM23.1154 8.91861C25.826 9.36526 28.1893 12.0298 29.6472 15.91C27.518 16.4989 25.324 16.8212 23.1154 16.8696V8.91861ZM23.1154 18.5068C25.4976 18.4516 27.8633 18.0952 30.156 17.4462C30.7799 19.642 31.1205 21.9085 31.1697 24.1905H23.1154V18.5068ZM23.1154 25.8059H31.1697C31.1202 28.0888 30.7793 30.356 30.1552 32.5526C27.8617 31.9114 25.4964 31.5624 23.1154 31.5139V25.8059ZM23.1154 41.0786V33.1268C25.3239 33.1754 27.518 33.4977 29.6472 34.0864V34.0872C28.1893 37.9641 25.826 40.6295 23.1154 41.0786ZM34.1646 35.9707C33.8028 36.3616 33.4216 36.73 33.0266 37.0797C32.9983 37.1055 32.9717 37.1322 32.9458 37.1605C32.5646 37.494 32.1672 37.8066 31.7593 38.0998C31.7092 38.1362 31.6608 38.1733 31.6099 38.2088C31.2109 38.4907 30.7982 38.7516 30.3765 38.9947C30.3127 39.0311 30.2489 39.069 30.1851 39.1046C29.7662 39.3388 29.337 39.5542 28.8977 39.7507L28.6844 39.8444C28.4074 39.9632 28.119 40.0609 27.8372 40.1675C29.328 38.5512 30.47 36.6454 31.1923 34.5686C32.2303 34.938 33.231 35.405 34.1808 35.9635L34.1646 35.9707ZM35.2017 34.7115H35.1985C34.0908 34.0355 32.9164 33.4756 31.6939 33.0404C32.3686 30.6862 32.7352 28.2544 32.7843 25.8059H38.426C38.2633 29.0295 37.1404 32.1308 35.2017 34.7115Z" fill="#C12026"/>
<path d="M42.5002 24.9982C42.4878 36.145 33.4547 45.1781 22.3079 45.1905H11.3345L13.382 43.1422L12.24 42.0001L8.24268 45.9982L12.24 49.9963L13.382 48.8542L11.3345 46.8059H22.3079C34.3465 46.7926 44.1023 37.0368 44.1156 24.9982H42.5002Z" fill="#C12026"/>
<path d="M30.7603 0L29.6182 1.14208L31.6657 3.19039H22.3078C10.2692 3.20372 0.513327 12.9596 0.5 24.9981H2.11539C2.12781 13.8514 11.161 4.8182 22.3078 4.80578H31.6657L29.6182 6.8541L30.7603 7.99618L34.7576 3.99809L30.7603 0Z" fill="#C12026"/>
</svg>
