<svg width="51" height="45" viewBox="0 0 51 45" fill="none" xmlns="http://www.w3.org/2000/svg">
<path d="M11.7648 37.1942C6.46768 32.9733 3.42969 26.6706 3.42969 19.9022C3.42969 13.1341 6.46748 6.83143 11.7645 2.61053C12.3972 2.10633 12.5013 1.18465 11.9971 0.552028C11.493 -0.0806868 10.5713 -0.184886 9.93857 0.319313C3.94023 5.0993 0.5 12.237 0.5 19.9022C0.5 27.5678 3.94033 34.7056 9.93906 39.4854C10.5714 39.9894 11.4932 39.8856 11.9976 39.2527C12.5017 38.62 12.3976 37.6984 11.7648 37.1942Z" fill="#C12026"/>
<path d="M41.0615 0.319394C40.4287 -0.184707 39.5072 -0.0806058 39.003 0.552109C38.4988 1.18482 38.6029 2.10641 39.2357 2.61061C44.5324 6.8316 47.5702 13.1341 47.5702 19.9022C47.5702 26.6704 44.5324 32.9729 39.2356 37.1938C38.6028 37.698 38.4987 38.6197 39.0029 39.2523C39.5073 39.8853 40.4291 39.9888 41.0614 39.485C47.0597 34.705 50.4999 27.5673 50.4999 19.9022C50.4999 12.2371 47.0597 5.09937 41.0615 0.319394Z" fill="#C12026"/>
<path d="M16.646 31.0797C13.2118 28.3482 11.2422 24.2741 11.2422 19.9022C11.2422 15.5302 13.2118 11.4561 16.6461 8.72446C17.2792 8.22085 17.3843 7.29937 16.8806 6.66616C16.3768 6.03296 15.4554 5.92798 14.8223 6.43159C10.6853 9.72232 8.3125 14.6321 8.3125 19.9022C8.3125 25.1722 10.6853 30.082 14.8222 33.3726C15.4558 33.8764 16.377 33.771 16.8805 33.138C17.3841 32.5049 17.2791 31.5834 16.646 31.0797Z" fill="#C12026"/>
<path d="M36.1777 6.43186C35.5445 5.92834 34.6231 6.03323 34.1194 6.66643C33.6158 7.29953 33.7208 8.22112 34.3539 8.72473C37.7881 11.4563 39.7577 15.5303 39.7577 19.9023C39.7577 24.2742 37.7881 28.3484 34.3538 31.0799C33.7207 31.5835 33.6156 32.505 34.1193 33.1382C34.6232 33.7717 35.5449 33.8761 36.1776 33.3728C40.3146 30.0821 42.6874 25.1723 42.6874 19.9023C42.6874 14.6322 40.3146 9.72248 36.1777 6.43186Z" fill="#C12026"/>
<path d="M25.5 12.5977C21.4614 12.5977 18.1758 15.8833 18.1758 19.9219C18.1758 23.4589 20.6961 26.4182 24.0352 27.0987V43.457C24.0352 44.266 24.691 44.9219 25.5 44.9219C26.309 44.9219 26.9648 44.266 26.9648 43.457V27.0987C30.3039 26.4183 32.8242 23.459 32.8242 19.9219C32.8242 15.8833 29.5386 12.5977 25.5 12.5977ZM25.5 24.3164C23.0769 24.3164 21.1055 22.345 21.1055 19.9219C21.1055 17.4987 23.0769 15.5273 25.5 15.5273C27.9231 15.5273 29.8945 17.4987 29.8945 19.9219C29.8945 22.345 27.9231 24.3164 25.5 24.3164Z" fill="#C12026"/>
</svg>
