<svg width="19" height="18" viewBox="0 0 19 18" fill="none" xmlns="http://www.w3.org/2000/svg">
<path d="M2.27994 0C0.90135 0 0 0.905252 0 2.09508C0 3.25863 0.874499 4.1897 2.22704 4.1897H2.2532C3.65876 4.1897 4.53349 3.25863 4.53349 2.09508C4.50721 0.905252 3.65876 0 2.27994 0Z" fill="#F3F3F3" fill-opacity="0.7"/>
<path d="M0.237793 5.84546H4.26799V17.9705H0.237793V5.84546Z" fill="#F3F3F3" fill-opacity="0.7"/>
<path d="M14.1604 5.56079C11.9862 5.56079 10.5284 7.60378 10.5284 7.60378V5.84537H6.49805V17.9704H10.5281V11.1993C10.5281 10.8368 10.5544 10.4749 10.6609 10.2157C10.9522 9.49185 11.6153 8.74197 12.7287 8.74197C14.187 8.74197 14.7703 9.85388 14.7703 11.4839V17.9704H18.8001V11.0181C18.8001 7.29384 16.8118 5.56079 14.1604 5.56079Z" fill="#F3F3F3" fill-opacity="0.7"/>
</svg>
