<svg width="26" height="44" viewBox="0 0 26 44" fill="none" xmlns="http://www.w3.org/2000/svg">
<path d="M22.2146 0H3.70088C1.93033 0 0.5 1.43588 0.5 3.20644V40.7977C0.5 42.5627 1.93033 44 3.70088 44H22.2146C23.9824 44 25.4183 42.5641 25.4183 40.7977V3.20644C25.4169 1.43588 23.9824 0 22.2146 0ZM23.0173 35.6499H2.90101V5.40887H23.0173V35.6499ZM17.2501 3.25365H8.66677V2.31769H17.2515L17.2501 3.25365ZM20.9232 2.82594C20.9232 3.27865 20.5538 3.64526 20.1025 3.64526C19.6498 3.64526 19.2818 3.27726 19.2818 2.82594C19.2818 2.37463 19.6498 2.00663 20.1025 2.00663C20.5552 2.00524 20.9232 2.37324 20.9232 2.82594ZM16.8655 40.5839H9.04865V38.1787H16.8655V40.5839Z" fill="#C12026"/>
</svg>
