<svg width="44" height="44" viewBox="0 0 44 44" fill="none" xmlns="http://www.w3.org/2000/svg">
<path d="M40.4562 34.155C40.4991 34.0151 40.5797 33.8897 40.6892 33.7927C40.7987 33.6957 40.9329 33.6307 41.0769 33.605L43.9998 33.1179V29.7393L41.0769 29.2522C40.9329 29.2265 40.7987 29.1616 40.6892 29.0645C40.5797 28.9675 40.4991 28.8421 40.4562 28.7022C40.2731 28.1047 40.0337 27.5259 39.7412 26.9736C39.6717 26.8453 39.6392 26.7001 39.6476 26.5544C39.6559 26.4087 39.7047 26.2682 39.7884 26.1486L41.5169 23.7365L39.1205 21.34L36.7084 23.0686C36.5888 23.1523 36.4483 23.2011 36.3026 23.2094C36.1568 23.2177 36.0117 23.1853 35.8834 23.1157C35.3311 22.8232 34.7523 22.5838 34.1548 22.4007C34.0149 22.3579 33.8895 22.2773 33.7925 22.1678C33.6954 22.0583 33.6305 21.9241 33.6048 21.78L33.1176 18.8572H29.7391L29.2519 21.78C29.2262 21.9241 29.1613 22.0583 29.0643 22.1678C28.9672 22.2773 28.8418 22.3579 28.7019 22.4007C28.1044 22.5838 27.5256 22.8232 26.9734 23.1157C26.845 23.1853 26.6999 23.2177 26.5542 23.2094C26.4084 23.2011 26.2679 23.1523 26.1484 23.0686L23.7362 21.34L21.3398 23.7365L23.0684 26.1486C23.1521 26.2682 23.2008 26.4087 23.2091 26.5544C23.2175 26.7001 23.185 26.8453 23.1155 26.9736C22.8272 27.537 22.5854 28.123 22.3926 28.7257C22.3459 28.8597 22.2646 28.9789 22.157 29.0714C22.0494 29.1638 21.9193 29.2262 21.7798 29.2522L18.8569 29.7393V33.1179L21.7798 33.605C21.9238 33.6307 22.058 33.6957 22.1675 33.7927C22.277 33.8897 22.3577 34.0151 22.4005 34.155C22.5836 34.7526 22.823 35.3313 23.1155 35.8836C23.185 36.0119 23.2175 36.1571 23.2091 36.3028C23.2008 36.4485 23.1521 36.589 23.0684 36.7086L21.3398 39.1207L23.7362 41.5172L26.1484 39.7886C26.2679 39.7049 26.4084 39.6561 26.5542 39.6478C26.6999 39.6395 26.845 39.6719 26.9734 39.7415C27.5256 40.034 28.1044 40.2734 28.7019 40.4565C28.8418 40.4993 28.9672 40.5799 29.0643 40.6894C29.1613 40.799 29.2262 40.9331 29.2519 41.0772L29.7391 44H33.1176L33.6048 41.0772C33.6305 40.9331 33.6954 40.799 33.7925 40.6894C33.8895 40.5799 34.0149 40.4993 34.1548 40.4565C34.7523 40.2734 35.3311 40.034 35.8834 39.7415C36.0117 39.6719 36.1568 39.6395 36.3026 39.6478C36.4483 39.6561 36.5888 39.7049 36.7084 39.7886L39.1205 41.5172L41.5169 39.1207L39.7884 36.7086C39.7047 36.589 39.6559 36.4485 39.6476 36.3028C39.6392 36.1571 39.6717 36.0119 39.7412 35.8836C40.0337 35.3313 40.2731 34.7526 40.4562 34.155ZM31.4284 38.5C30.0298 38.5 28.6626 38.0853 27.4997 37.3083C26.3368 36.5313 25.4304 35.4269 24.8952 34.1347C24.36 32.8426 24.22 31.4208 24.4928 30.049C24.7657 28.6773 25.4392 27.4173 26.4281 26.4284C27.4171 25.4394 28.6771 24.7659 30.0488 24.4931C31.4205 24.2202 32.8423 24.3602 34.1345 24.8955C35.4266 25.4307 36.531 26.337 37.308 27.4999C38.0851 28.6628 38.4998 30.03 38.4998 31.4286C38.4975 33.3034 37.7517 35.1007 36.4261 36.4263C35.1004 37.752 33.3031 38.4977 31.4284 38.5Z" fill="#C12026"/>
<path d="M31.4287 36.9286C34.4663 36.9286 36.9287 34.4662 36.9287 31.4286C36.9287 28.391 34.4663 25.9286 31.4287 25.9286C28.3911 25.9286 25.9287 28.391 25.9287 31.4286C25.9287 34.4662 28.3911 36.9286 31.4287 36.9286Z" fill="#C12026"/>
<path d="M23.092 19.7608C23.2232 19.6285 23.3972 19.5472 23.5829 19.5314C23.7685 19.5156 23.9538 19.5662 24.1055 19.6743L24.6398 20.0593C25.2715 18.3807 25.3092 16.5364 24.7466 14.8334C24.1839 13.1303 23.0549 11.6714 21.5475 10.6996C20.0401 9.72768 18.2453 9.30146 16.4618 9.49187C14.6784 9.68228 13.0141 10.4778 11.7458 11.7461C10.4776 13.0143 9.68204 14.6787 9.49163 16.4621C9.30122 18.2455 9.72744 20.0403 10.6993 21.5477C11.6712 23.0551 13.1301 24.1842 14.8331 24.7468C16.5361 25.3094 18.3805 25.2718 20.0591 24.6401L19.6741 24.1058C19.5682 23.9532 19.5189 23.7684 19.5347 23.5834C19.5505 23.3984 19.6304 23.2247 19.7605 23.0922L23.092 19.7608Z" fill="#C12026"/>
<path d="M5.665 22.0629C5.67286 22.0786 5.68071 22.0864 5.68071 22.1021C5.8054 22.3882 5.86044 22.6997 5.84131 23.0111C5.82219 23.3225 5.72945 23.625 5.57071 23.8936L3.27643 27.72L6.85143 31.295L10.67 29.0007C10.9725 28.8226 11.3168 28.7278 11.6679 28.7257C11.9434 28.7258 12.2161 28.782 12.4693 28.8907C12.485 28.8907 12.4929 28.8986 12.5086 28.9064C12.7956 29.0226 13.0512 29.2047 13.2546 29.4382C13.458 29.6716 13.6035 29.9498 13.6793 30.25L14.7557 34.5714H18.0086L17.9457 34.5636C17.7611 34.5337 17.5933 34.4389 17.4723 34.2963C17.3513 34.1537 17.2852 33.9727 17.2857 33.7857V29.0714C17.2852 28.8844 17.3513 28.7034 17.4723 28.5608C17.5933 28.4182 17.7611 28.3235 17.9457 28.2936L21.065 27.775C21.1933 27.4001 21.3428 27.0329 21.5129 26.675L20.9864 25.9443C18.9641 26.8139 16.702 26.9516 14.5892 26.3338C12.4763 25.7159 10.6448 24.3812 9.40959 22.5591C8.17437 20.737 7.61268 18.5414 7.82111 16.35C8.02954 14.1585 8.99507 12.1082 10.5516 10.5516C12.1082 8.99507 14.1585 8.02954 16.35 7.82111C18.5414 7.61268 20.737 8.17437 22.5591 9.40959C24.3812 10.6448 25.7159 12.4763 26.3338 14.5892C26.9516 16.702 26.8139 18.9641 25.9443 20.9864L26.675 21.5129C27.0326 21.3376 27.3998 21.1828 27.775 21.0493L28.2936 17.9457C28.3235 17.7611 28.4182 17.5933 28.5608 17.4723C28.7034 17.3513 28.8844 17.2852 29.0714 17.2857H33.7857C33.9727 17.2852 34.1537 17.3513 34.2963 17.4723C34.4389 17.5933 34.5337 17.7611 34.5636 17.9457L34.5714 18.0086V14.7557L30.25 13.6793C29.9498 13.6035 29.6716 13.458 29.4382 13.2546C29.2047 13.0512 29.0226 12.7956 28.9064 12.5086C28.8986 12.4929 28.8907 12.485 28.8907 12.4693C28.766 12.1833 28.711 11.8718 28.7301 11.5603C28.7492 11.2489 28.842 10.9465 29.0007 10.6779L31.295 6.84357L27.7279 3.27643L23.9014 5.57071C23.5989 5.74878 23.2546 5.84366 22.9036 5.84571C22.628 5.84561 22.3553 5.78947 22.1021 5.68071C22.0864 5.68071 22.0786 5.67286 22.0629 5.665C21.7758 5.54887 21.5202 5.36669 21.3168 5.13324C21.1134 4.89979 20.9679 4.62166 20.8921 4.32143L19.8157 0H14.7557L13.6793 4.32143C13.6035 4.62166 13.458 4.89979 13.2546 5.13324C13.0512 5.36669 12.7956 5.54887 12.5086 5.665C12.4929 5.67286 12.485 5.68071 12.4693 5.68071C12.1833 5.8054 11.8718 5.86044 11.5603 5.84131C11.2489 5.82219 10.9465 5.72945 10.6779 5.57071L6.84357 3.27643L3.27643 6.84357L5.57071 10.67C5.74878 10.9725 5.84366 11.3168 5.84571 11.6679C5.84561 11.9434 5.78947 12.2161 5.68071 12.4693C5.68071 12.485 5.67286 12.4929 5.665 12.5086C5.54887 12.7956 5.36669 13.0512 5.13324 13.2546C4.89979 13.458 4.62166 13.6035 4.32143 13.6793L0 14.7557V19.8157L4.32143 20.8921C4.62166 20.9679 4.89979 21.1134 5.13324 21.3168C5.36669 21.5202 5.54887 21.7758 5.665 22.0629Z" fill="#C12026"/>
</svg>
