<svg width="39" height="34" viewBox="0 0 39 34" fill="none" xmlns="http://www.w3.org/2000/svg">
<path fill-rule="evenodd" clip-rule="evenodd" d="M0.975 0C0.436522 0 0 0.450364 0 1.00592V32.9941C0 33.5496 0.436521 34 0.974999 34H38.025C38.5635 34 39 33.5496 39 32.9941V1.00592C39 0.450365 38.5635 0 38.025 0H0.975ZM6.045 2.4142H2.145V4.62722H6.045V2.4142ZM2.145 29.3728H6.045V31.5858H2.145V29.3728ZM12.285 2.4142H8.385V4.62722H12.285V2.4142ZM8.385 29.3728H12.285V31.5858H8.385V29.3728ZM18.525 2.4142H14.625V4.62722H18.525V2.4142ZM14.625 29.3728H18.525V31.5858H14.625V29.3728ZM24.57 2.4142H20.67V4.62722H24.57V2.4142ZM20.67 29.3728H24.57V31.5858H20.67V29.3728ZM30.81 2.4142H26.91V4.62722H30.81V2.4142ZM26.91 29.3728H30.81V31.5858H26.91V29.3728ZM37.05 2.4142H33.15V4.62722H37.05V2.4142ZM33.15 29.3728H37.05V31.5858H33.15V29.3728ZM23.9558 18.0488C24.7435 17.5858 24.7435 16.4142 23.9558 15.9512L16.3742 11.4946C15.5942 11.0361 14.625 11.6172 14.625 12.5434V21.4566C14.625 22.3828 15.5942 22.9639 16.3742 22.5054L23.9558 18.0488Z" fill="#C12026"/>
</svg>
