<svg width="31" height="40" viewBox="0 0 31 40" fill="none" xmlns="http://www.w3.org/2000/svg">
<path d="M21.5355 15.844C24.1876 13.4261 27.774 10.156 28.1009 2.34375H30.4688V0H0V2.34375H2.36789C2.69477 10.156 6.28117 13.4261 8.9332 15.844C10.7122 17.4659 11.7188 18.4587 11.7188 20C11.7188 21.5413 10.7122 22.5341 8.9332 24.156C6.28117 26.5739 2.69477 29.844 2.36789 37.6562H0V40H30.4688V37.6562H28.1009C27.774 29.844 24.1876 26.5739 21.5355 24.156C19.7566 22.5341 18.75 21.5413 18.75 20C18.75 18.4587 19.7566 17.4659 21.5355 15.844ZM14.0625 28.7842C13.7005 28.8589 13.343 28.9676 12.994 29.112L5.81609 32.0822C6.98828 29.1017 8.87625 27.3796 10.5123 25.888C12.338 24.2234 14.0625 22.6512 14.0625 20V28.7842ZM19.9565 25.888C21.5925 27.3796 23.4804 29.1017 24.6527 32.0821L17.4748 29.1119C17.1258 28.9675 16.7682 28.8588 16.4062 28.7841V20C16.4062 22.6512 18.1307 24.2234 19.9565 25.888ZM5.77492 7.8125C5.20828 6.33602 4.81695 4.55328 4.71453 2.34375H25.7541C25.6517 4.55328 25.2605 6.33602 24.6937 7.8125H5.77492Z" fill="#C12026"/>
</svg>
