<svg width="21" height="17" viewBox="0 0 21 17" fill="none" xmlns="http://www.w3.org/2000/svg">
<path d="M17.9899 4.00013C18.8052 3.43009 19.4911 2.71857 20.05 1.8993V1.89848C19.304 2.2201 18.5103 2.43397 17.6816 2.53761C18.5337 2.03667 19.1845 1.24947 19.4903 0.301058C18.6958 0.767452 17.8186 1.09648 16.8838 1.28073C16.1294 0.489426 15.0542 0 13.8813 0C11.6056 0 9.77354 1.81869 9.77354 4.04784C9.77354 4.36864 9.80111 4.6771 9.86878 4.97076C6.45192 4.80624 3.42771 3.19402 1.39598 0.737017C1.04176 1.34325 0.83291 2.03667 0.83291 2.78273C0.83291 4.18438 1.56557 5.42646 2.65913 6.1462C1.99832 6.13386 1.35087 5.94467 0.802 5.64773V5.69214C0.802 7.6589 2.22639 9.29251 4.09521 9.66924C3.76021 9.75972 3.39597 9.8025 3.01752 9.8025C2.75437 9.8025 2.48871 9.78769 2.23975 9.7334C2.77191 11.3358 4.28402 12.5145 6.08016 12.5532C4.68167 13.6299 2.90558 14.2789 0.983285 14.2789C0.646613 14.2789 0.323306 14.2641 0 14.2238C1.82121 15.3795 3.97825 16.04 6.30572 16.04C13.5596 16.04 18.2873 10.0813 17.9899 4.00013Z" fill="#F3F3F3" fill-opacity="0.7"/>
</svg>
