<svg width="80" height="80" viewBox="0 0 80 80" fill="none" xmlns="http://www.w3.org/2000/svg">
<path fill-rule="evenodd" clip-rule="evenodd" d="M63.7559 67.532C71.4771 60.8639 76.3636 51.0026 76.3636 40C76.3636 19.9169 60.0831 3.63636 40 3.63636C19.9169 3.63636 3.63636 19.9169 3.63636 40C3.63636 50.9805 8.50325 60.8242 16.1975 67.4918C15.2061 59.0658 20.6204 52.4454 30.9033 50.7217H49.0014C60.8734 52.4275 64.7986 60.5278 63.7559 67.532ZM40 80C62.0914 80 80 62.0914 80 40C80 17.9086 62.0914 0 40 0C17.9086 0 0 17.9086 0 40C0 62.0914 17.9086 80 40 80ZM54.4329 32.7835C54.4329 40.8685 47.971 47.4227 39.9999 47.4227C32.0288 47.4227 25.5669 40.8685 25.5669 32.7835C25.5669 24.6985 32.0288 18.1443 39.9999 18.1443C47.971 18.1443 54.4329 24.6985 54.4329 32.7835Z" fill="#ACACAC"/>
</svg>
