<svg width="40" height="40" viewBox="0 0 40 40" fill="none" xmlns="http://www.w3.org/2000/svg">
<path d="M32.2311 5.7634L28.6221 9.37244L30.6275 11.3778L34.2365 7.76881L32.2311 5.7634Z" fill="#C12026"/>
<path d="M28.075 2.40686H25.2383V7.51195H28.075V2.40686Z" fill="#C12026"/>
<path d="M37.6339 11.965H32.5278V14.8011H37.6339V11.965Z" fill="#C12026"/>
<path d="M8.96966 29.025L5.3584 32.6357L7.36408 34.6417L10.9753 31.031L8.96966 29.025Z" fill="#C12026"/>
<path d="M7.11046 25.6429H2.00537V28.479H7.11046V25.6429Z" fill="#C12026"/>
<path d="M14.3997 32.9307H11.563V38.0368H14.3997V32.9307Z" fill="#C12026"/>
<path d="M16.5628 9.58486C16.6723 9.58486 16.8318 9.61268 16.9632 9.74432L22.2056 14.9867L25.8154 11.3768L20.5731 6.13447C19.4704 5.03181 18.0161 4.47993 16.5628 4.47993C15.109 4.47993 13.6546 5.03134 12.552 6.134L11.1475 7.53853L4.35712 0.747423C3.36055 -0.249141 1.74446 -0.249141 0.747892 0.747423C-0.249297 1.74461 -0.249297 3.36055 0.747892 4.35727L7.53877 11.1481L5.73337 12.9531C3.5268 15.1596 3.5268 18.7695 5.73275 20.9754L10.9751 26.2178L14.5843 22.6079L9.34197 17.3656C9.21096 17.2339 9.18314 17.0751 9.18314 16.9646C9.18314 16.854 9.21096 16.6946 9.3426 16.5625L11.1475 14.7575L12.7806 16.3906C13.7771 17.3878 15.3926 17.3878 16.3898 16.3906C17.387 15.3934 17.387 13.7779 16.3898 12.7814L14.7568 11.1483L16.1612 9.7444C16.2928 9.61268 16.4522 9.58486 16.5628 9.58486Z" fill="#C12026"/>
<path d="M39.2529 35.6435L32.4336 28.8248L33.8375 27.4209C36.0441 25.2143 36.0441 21.6051 33.8382 19.3985L28.6236 14.184L25.0138 17.7938L30.2276 23.0078C30.4415 23.2217 30.4415 23.5966 30.2276 23.8105L28.8237 25.2144L27.2196 23.6102C26.2224 22.613 24.6069 22.613 23.6103 23.6102C22.6131 24.6068 22.6131 26.2223 23.6103 27.2195L25.2145 28.8236L23.4085 30.6296C23.2768 30.7613 23.1175 30.7891 23.0074 30.7891C22.898 30.7891 22.7385 30.7613 22.607 30.6296L17.3931 25.4151L13.7832 29.0249L18.9972 34.2395C20.0999 35.3421 21.5542 35.894 23.0074 35.894C24.4613 35.894 25.9156 35.3421 27.0183 34.2395L28.8243 32.4335L35.643 39.2521C36.6402 40.2493 38.2563 40.2493 39.2529 39.2521C40.2494 38.2555 40.2494 36.6396 39.2529 35.6435Z" fill="#C12026"/>
</svg>
