<svg width="20" height="14" viewBox="0 0 20 14" fill="none" xmlns="http://www.w3.org/2000/svg">
<path d="M19.5575 2.00036L19.5825 2.16177C19.3408 1.31436 18.6883 0.660481 17.8592 0.422482L17.8417 0.418364C16.2825 1.12898e-05 10.0085 1.13812e-05 10.0085 1.13812e-05C10.0085 1.13812e-05 3.7502 -0.00822399 2.17522 0.418364C1.33023 0.660481 0.676904 1.31436 0.439406 2.14448L0.43524 2.16177C-0.147253 5.16848 -0.15142 8.7813 0.461073 12.0005L0.43524 11.8374C0.676904 12.6848 1.3294 13.3387 2.15855 13.5767L2.17605 13.5808C3.73353 14 10.0093 14 10.0093 14C10.0093 14 16.2667 14 17.8425 13.5808C18.6883 13.3387 19.3417 12.6848 19.5792 11.8547L19.5833 11.8374C19.8483 10.4391 20 8.82989 20 7.18612C20 7.12601 20 7.06506 19.9992 7.00412C20 6.94812 20 6.88142 20 6.81471C20 5.17012 19.8483 3.56095 19.5575 2.00036ZM8.00681 10.0067V4.00071L13.2284 7.00824L8.00681 10.0067Z" fill="#F3F3F3" fill-opacity="0.7"/>
</svg>
